<?xml version="1.0" encoding="UTF-8" standalone="no"?>
<svg width="63px" height="63px" viewBox="0 0 63 63" version="1.1" xmlns="http://www.w3.org/2000/svg" xmlns:xlink="http://www.w3.org/1999/xlink" xmlns:sketch="http://www.bohemiancoding.com/sketch/ns">
    <!-- Generator: Sketch 3.2 (9961) - http://www.bohemiancoding.com/sketch -->
    <title>Oval 47</title>
    <desc>Created with Sketch.</desc>
    <defs></defs>
    <g id="Welcome" stroke="none" stroke-width="1" fill="none" fill-rule="evenodd" sketch:type="MSPage">
        <g id="iMods-Store" sketch:type="MSArtboardGroup" transform="translate(-449.000000, -477.000000)" fill="#4D9DF6">
            <g id="Oval-47" sketch:type="MSLayerGroup" transform="translate(445.000000, 473.000000)">
                <path d="M9.48942986,53.2732861 C11.7004248,56.5027756 14.4972244,59.2995752 17.7267139,61.5105701 C18.8088684,59.4249229 20.9880299,58 23.5,58 C27.0898509,58 30,60.9101491 30,64.5 C30,65.1855059 29.893883,65.8462268 29.69718,66.4666319 L29.69718,66.4666319 C31.5780214,66.8168797 33.5176257,67 35.5,67 C37.4823743,67 39.4219786,66.8168797 41.30282,66.4666319 L41.30282,66.4666319 C41.106117,65.8462268 41,65.1855059 41,64.5 C41,60.9101491 43.9101491,58 47.5,58 C50.0119701,58 52.1911316,59.4249229 53.2732861,61.5105701 C56.5027756,59.2995752 59.2995752,56.5027756 61.5105701,53.2732861 C59.4249229,52.1911316 58,50.0119701 58,47.5 C58,43.9101491 60.9101491,41 64.5,41 C65.1855059,41 65.8462268,41.106117 66.4666319,41.30282 L66.4666319,41.30282 C66.8168797,39.4219786 67,37.4823743 67,35.5 C67,33.5176257 66.8168797,31.5780214 66.4666319,29.69718 L66.4666319,29.69718 C65.8462268,29.893883 65.1855059,30 64.5,30 C60.9101491,30 58,27.0898509 58,23.5 C58,20.9880299 59.4249229,18.8088684 61.5105701,17.7267139 C59.2995752,14.4972244 56.5027756,11.7004248 53.2732861,9.48942986 C52.1911316,11.5750771 50.0119701,13 47.5,13 C43.9101491,13 41,10.0898509 41,6.5 C41,5.81449414 41.106117,5.15377323 41.30282,4.53336815 L41.30282,4.53336815 C39.4219786,4.18312033 37.4823743,4 35.5,4 C33.5176257,4 31.5780214,4.18312033 29.69718,4.53336815 L29.69718,4.53336815 C29.893883,5.15377323 30,5.81449414 30,6.5 C30,10.0898509 27.0898509,13 23.5,13 C20.9880299,13 18.8088684,11.5750771 17.7267139,9.48942986 C14.4972244,11.7004248 11.7004248,14.4972244 9.48942986,17.7267139 L9.48942986,17.7267139 C11.5750771,18.8088684 13,20.9880299 13,23.5 C13,27.0898509 10.0898509,30 6.5,30 C5.81449414,30 5.15377323,29.893883 4.53336815,29.69718 C4.18312033,31.5780214 4,33.5176257 4,35.5 C4,37.4823743 4.18312033,39.4219786 4.53336815,41.30282 C5.15377323,41.106117 5.81449414,41 6.5,41 C10.0898509,41 13,43.9101491 13,47.5 C13,50.0119701 11.5750771,52.1911316 9.48942986,53.2732861 L9.48942986,53.2732861 Z M35.5,50 C43.5081289,50 50,43.5081289 50,35.5 C50,27.4918711 43.5081289,21 35.5,21 C27.4918711,21 21,27.4918711 21,35.5 C21,43.5081289 27.4918711,50 35.5,50 Z M35.5,45 C40.7467051,45 45,40.7467051 45,35.5 C45,30.2532949 40.7467051,26 35.5,26 C30.2532949,26 26,30.2532949 26,35.5 C26,40.7467051 30.2532949,45 35.5,45 Z" sketch:type="MSShapeGroup"></path>
            </g>
        </g>
    </g>
</svg>